<?xml version="1.0" encoding="utf-8"?>
<!-- Generator: Adobe Illustrator 24.0.1, SVG Export Plug-In . SVG Version: 6.00 Build 0)  -->
<svg version="1.1" id="Capa_1" xmlns="http://www.w3.org/2000/svg" xmlns:xlink="http://www.w3.org/1999/xlink" x="0px" y="0px"
	 viewBox="0 0 825.13 107.91" enable-background="new 0 0 825.13 107.91" xml:space="preserve">
<g>
	<path fill="#939192" d="M807.93,5.62c2.89,0,5.71,0.74,8.46,2.22c2.75,1.48,4.9,3.6,6.43,6.36c1.54,2.76,2.3,5.64,2.3,8.63
		c0,2.96-0.76,5.82-2.27,8.55c-1.51,2.74-3.64,4.86-6.36,6.37c-2.73,1.51-5.58,2.27-8.56,2.27c-2.98,0-5.83-0.76-8.56-2.27
		c-2.73-1.51-4.86-3.64-6.37-6.37c-1.52-2.74-2.28-5.59-2.28-8.55c0-3,0.77-5.87,2.31-8.63c1.54-2.76,3.69-4.88,6.44-6.36
		C802.22,6.36,805.04,5.62,807.93,5.62 M807.93,8.47c-2.42,0-4.77,0.62-7.06,1.86c-2.29,1.24-4.08,3.01-5.37,5.32
		c-1.29,2.3-1.94,4.7-1.94,7.19c0,2.48,0.63,4.85,1.9,7.13c1.27,2.27,3.04,4.04,5.32,5.31c2.28,1.27,4.66,1.91,7.14,1.91
		c2.48,0,4.86-0.63,7.14-1.91c2.28-1.27,4.05-3.04,5.31-5.31c1.26-2.28,1.9-4.65,1.9-7.13c0-2.49-0.65-4.89-1.93-7.19
		c-1.29-2.31-3.08-4.08-5.37-5.32C812.68,9.09,810.33,8.47,807.93,8.47 M800.38,32.35V13.83h6.36c2.17,0,3.75,0.17,4.72,0.51
		c0.97,0.34,1.75,0.94,2.33,1.79c0.58,0.85,0.86,1.76,0.86,2.71c0,1.35-0.48,2.53-1.45,3.54c-0.97,1-2.24,1.56-3.84,1.69
		c0.66,0.27,1.18,0.6,1.57,0.98c0.75,0.73,1.66,1.95,2.74,3.67l2.26,3.62h-3.65l-1.64-2.92c-1.29-2.3-2.33-3.73-3.12-4.31
		c-0.55-0.42-1.35-0.64-2.39-0.64h-1.76v7.87H800.38z M803.37,21.92h3.62c1.73,0,2.92-0.26,3.55-0.77c0.63-0.52,0.95-1.2,0.95-2.05
		c0-0.55-0.15-1.04-0.46-1.47c-0.3-0.43-0.72-0.75-1.27-0.97c-0.54-0.21-1.54-0.32-3-0.32h-3.4V21.92z"/>
	<path fill="#939192" d="M139.52,80.31V54.74c0-5.15,0.76-9.48,2.28-12.98c1.52-3.5,3.59-6.31,6.24-8.42
		c2.51-1.99,5.45-3.44,8.82-4.36c3.37-0.92,6.83-1.39,10.4-1.39h0.99h0.99v14.07h-4.55c-3.84,0-6.67,0.93-8.52,2.77
		c-1.85,1.85-2.78,4.76-2.78,8.72v27.15H139.52z"/>
	<path fill="#939192" d="M207.29,64.06h9.91c-1.46,5.55-4.24,9.78-8.32,12.69c-4.1,3.03-9.25,4.55-15.46,4.55
		c-7.53,0-13.41-2.44-17.63-7.33c-4.23-4.76-6.34-11.56-6.34-20.41c0-8.46,2.05-15.06,6.14-19.82c4.23-4.89,10.11-7.33,17.64-7.33
		c7.93,0,14.07,2.38,18.43,7.13c4.23,4.89,6.34,11.69,6.34,20.41v1.39v0.79c0,0.66-0.07,1.13-0.19,1.39h-34.28
		c0.13,4.09,1.12,7.13,2.97,9.11c1.72,2.11,4.29,3.17,7.73,3.17c2.24,0,4.16-0.46,5.74-1.39c0.39-0.13,0.76-0.37,1.09-0.69
		c0.33-0.33,0.69-0.69,1.09-1.09c0.13-0.39,0.62-0.93,1.49-1.58C204.48,64.39,205.7,64.06,207.29,64.06 M183.51,48.6h20.21
		c-0.27-3.57-1.19-6.21-2.77-7.92c-1.72-1.85-4.16-2.78-7.33-2.78c-2.91,0-5.28,0.93-7.14,2.78
		C184.63,42.52,183.64,45.17,183.51,48.6"/>
	<path fill="#939192" d="M255.05,77.14v-3.37c-2.38,3.7-5.59,6.01-9.62,6.94c-4.03,0.92-8.02,0.59-11.98-0.99
		c-3.96-1.58-7.37-4.53-10.21-8.82c-2.84-4.29-4.26-9.93-4.26-16.94c0-8.19,1.88-14.83,5.65-19.91c3.76-5.08,9.81-7.63,18.13-7.63
		c6.34,0,12.22,1.71,17.64,5.15c5.42,3.44,8.12,9.78,8.12,19.03v27.94c0,9.25-2.71,15.55-8.12,18.92
		c-5.42,3.37-11.29,5.06-17.64,5.06c-12.16,0-19.69-5.68-22.59-17.04h14.46c1.05,1.85,2.67,3.27,4.85,4.26
		c2.18,0.99,4.36,1.25,6.54,0.79c2.18-0.46,4.16-1.75,5.94-3.87C253.76,84.53,254.78,81.36,255.05,77.14 M232.46,54.35
		c0,9.11,2.64,14.16,7.92,15.16c5.28,0.99,9.18-0.23,11.69-3.67c1.19-1.46,2.05-3.73,2.58-6.83c0.52-3.11,0.56-6.18,0.1-9.21
		c-0.46-3.05-1.55-5.75-3.27-8.13c-1.71-2.38-4.23-3.57-7.53-3.57c-4.5,0-7.53,1.65-9.12,4.95
		C233.24,46.36,232.46,50.13,232.46,54.35"/>
	<path fill="#939192" d="M304.58,78.13c-2.77,1.45-5.72,2.35-8.82,2.67c-3.11,0.33-5.84,0.49-8.22,0.49
		c-4.75,0-8.92-1.29-12.48-3.86c-3.57-2.58-5.35-6.83-5.35-12.78c0-5.55,1.62-9.51,4.86-11.89c3.24-2.38,7.36-3.96,12.38-4.76
		c0.66,0,1.45-0.1,2.38-0.29c0.93-0.21,1.99-0.37,3.17-0.5c5.81-0.79,8.72-2.51,8.72-5.15c0-1.98-1.03-3.26-3.07-3.86
		c-2.05-0.6-3.94-0.89-5.65-0.89c-1.85,0-3.5,0.27-4.96,0.79c-1.46,0.53-2.51,1.52-3.17,2.97h-13.28c0.53-4.09,2.38-7.47,5.55-10.11
		c3.57-3.04,8.65-4.56,15.26-4.56c7.4,0,12.95,1.25,16.65,3.76c3.83,2.65,5.75,6.34,5.75,11.1V59.3c0,5.29-0.96,9.42-2.87,12.38
		C309.5,74.66,307.22,76.81,304.58,78.13 M301.42,53.76c-1.85,0.93-4.43,1.78-7.73,2.58l-4.56,0.99c-2.38,0.66-4.1,1.51-5.15,2.57
		c-0.92,1.45-1.39,2.91-1.39,4.36c0,1.99,0.59,3.56,1.78,4.75c1.19,1.06,2.91,1.59,5.16,1.59c3.69,0,6.6-1.05,8.71-3.17
		c2.11-2.12,3.17-5.03,3.17-8.72V53.76z"/>
	<path fill="#939192" d="M316.87,12.14H324c1.85,0,3.43,0.63,4.75,1.88c1.32,1.26,1.98,2.81,1.98,4.66v61.63h-13.87V12.14z"/>
	<path fill="#939192" d="M339.66,75.55c-2.77-2.38-4.76-5.58-5.95-9.61c-1.19-4.03-1.78-8.22-1.78-12.58c0-3.56,0.49-7.13,1.49-10.7
		c0.99-3.57,2.54-6.54,4.66-8.92c3.43-3.96,7.85-6.3,13.27-7.04c5.42-0.72,10.31-0.29,14.66,1.29c5.02,1.98,8.72,5.42,11.1,10.3
		c2.24,4.36,3.37,9.45,3.37,15.27c0,4.22-0.47,7.86-1.39,10.9c-0.93,3.03-2.11,5.61-3.57,7.72c-3.17,4.36-7.2,7.07-12.09,8.13
		c-4.36,1.19-8.76,1.29-13.18,0.29C345.83,79.61,342.3,77.93,339.66,75.55 M349.17,40.68c-2.77,3.04-4.03,7.56-3.76,13.57
		c0.26,6.01,1.39,10.21,3.37,12.58c0.79,1.06,2.18,1.94,4.16,2.67c1.98,0.72,4,0.79,6.05,0.19c2.05-0.59,3.87-2.08,5.45-4.46
		c1.58-2.37,2.44-6.2,2.57-11.49c0-4.76-0.76-8.32-2.27-10.7c-1.52-2.38-3.27-3.89-5.25-4.56c-1.98-0.66-3.97-0.69-5.94-0.1
		C351.55,38.99,350.09,39.75,349.17,40.68"/>
	<path fill="#939192" d="M426.25,64.06h9.91c-1.46,5.55-4.23,9.78-8.33,12.69c-4.09,3.03-9.25,4.55-15.45,4.55
		c-7.53,0-13.41-2.44-17.64-7.33c-4.23-4.76-6.34-11.56-6.34-20.41c0-8.46,2.05-15.06,6.14-19.82c4.23-4.89,10.11-7.33,17.64-7.33
		c7.93,0,14.07,2.38,18.43,7.13c4.23,4.89,6.34,11.69,6.34,20.41v1.39v0.79c0,0.66-0.07,1.13-0.2,1.39h-34.28
		c0.13,4.09,1.12,7.13,2.97,9.11c1.71,2.11,4.29,3.17,7.73,3.17c2.24,0,4.15-0.46,5.74-1.39c0.39-0.13,0.76-0.37,1.09-0.69
		c0.33-0.33,0.69-0.69,1.09-1.09c0.12-0.39,0.62-0.93,1.49-1.58C423.44,64.39,424.67,64.06,426.25,64.06 M402.48,48.6h20.21
		c-0.27-3.57-1.19-6.21-2.78-7.92c-1.72-1.85-4.16-2.78-7.33-2.78c-2.91,0-5.28,0.93-7.13,2.78C403.6,42.52,402.6,45.17,402.48,48.6
		"/>
	<path fill="#939192" d="M485.11,80.31h-13.68V49.4v-2.78c0-3.17-0.96-5.48-2.87-6.93c-1.92-1.45-4.06-2.18-6.45-2.18
		c-2.38,0-4.49,0.73-6.34,2.18c-1.85,1.45-2.78,3.76-2.78,6.93v33.69h-13.87V49.4c0-8.98,2.35-14.99,7.04-18.03
		c4.69-3.04,9.87-4.69,15.56-4.95c3.03,0,6.01,0.33,8.92,0.99c2.91,0.66,5.55,1.98,7.92,3.96c1.99-1.71,4.33-2.94,7.04-3.66
		c2.7-0.72,5.51-1.15,8.42-1.29c5.82,0,11.17,1.52,16.05,4.55c4.89,3.04,7.33,9.18,7.33,18.43v30.91h-6.93
		c-1.98,0-3.6-0.63-4.85-1.88c-1.26-1.25-1.88-2.88-1.88-4.86V46.62c0-3.17-0.96-5.48-2.87-6.93c-1.92-1.45-4.06-2.18-6.44-2.18
		c-2.38,0-4.53,0.73-6.45,2.18c-1.92,1.45-2.87,3.76-2.87,6.93v2.78V80.31z"/>
	<path fill="#939192" d="M534.64,92.99c0,1.85-0.66,3.43-1.98,4.76c-1.32,1.31-2.91,1.98-4.75,1.98h-6.74V50.38
		c0-9.24,2.7-15.55,8.13-18.92c5.42-3.37,11.29-5.05,17.63-5.05c3.3,0,6.65,0.63,10.01,1.88c3.37,1.26,6.04,3.07,8.02,5.45
		c3.97,5.15,5.95,11.75,5.95,19.82c0,8.32-1.98,15.05-5.95,20.21c-3.96,5.03-9.05,7.53-15.26,7.53c-3.3,0-6.21-0.59-8.72-1.78
		c-2.64-1.32-4.76-3.37-6.35-6.14V92.99z M557.24,54.15c0-5.15-1-9.11-2.98-11.88c-1.98-2.78-4.82-4.17-8.52-4.17
		c-3.57,0-6.34,1.39-8.32,4.17c-1.86,2.5-2.78,6.47-2.78,11.88c0,5.03,1,8.8,2.98,11.3c1.98,2.78,4.82,4.16,8.52,4.16
		c3.43,0,6.14-1.38,8.12-4.16C556.24,62.67,557.24,58.91,557.24,54.15"/>
	<path fill="#939192" d="M573.28,80.31V54.74c0-5.15,0.76-9.48,2.28-12.98c1.51-3.5,3.59-6.31,6.24-8.42
		c2.51-1.99,5.45-3.44,8.82-4.36c3.37-0.92,6.83-1.39,10.4-1.39h0.99h0.99v14.07h-4.56c-3.84,0-6.68,0.93-8.52,2.77
		c-1.86,1.85-2.77,4.76-2.77,8.72v27.15H573.28z"/>
	<path fill="#939192" d="M641.06,64.06h9.9c-1.46,5.55-4.23,9.78-8.32,12.69c-4.1,3.03-9.25,4.55-15.46,4.55
		c-7.53,0-13.41-2.44-17.63-7.33c-4.23-4.76-6.34-11.56-6.34-20.41c0-8.46,2.05-15.06,6.15-19.82c4.22-4.89,10.11-7.33,17.64-7.33
		c7.93,0,14.07,2.38,18.43,7.13c4.23,4.89,6.34,11.69,6.34,20.41v1.39v0.79c0,0.66-0.07,1.13-0.19,1.39h-34.28
		c0.13,4.09,1.12,7.13,2.97,9.11c1.72,2.11,4.29,3.17,7.74,3.17c2.24,0,4.15-0.46,5.74-1.39c0.4-0.13,0.76-0.37,1.09-0.69
		c0.33-0.33,0.69-0.69,1.08-1.09c0.13-0.39,0.63-0.93,1.49-1.58C638.24,64.39,639.47,64.06,641.06,64.06 M617.27,48.6h20.21
		c-0.26-3.57-1.18-6.21-2.77-7.92c-1.71-1.85-4.16-2.78-7.33-2.78c-2.91,0-5.28,0.93-7.14,2.78C618.4,42.52,617.4,45.17,617.27,48.6
		"/>
	<path fill="#939192" d="M652.75,62.88h13.47c0.13,2.64,1.11,4.62,2.97,5.94c1.98,1.32,4.62,1.98,7.93,1.98
		c2.38,0,4.42-0.46,6.14-1.38c1.59-0.93,2.38-2.18,2.38-3.76c0-2.38-2.78-4.16-8.33-5.35c-2.38-0.4-4.16-0.79-5.34-1.18
		c-7.01-1.72-11.7-3.77-14.08-6.15c-2.64-2.38-3.96-5.56-3.96-9.51c0-5.02,1.91-9.18,5.74-12.48c3.96-3.04,9.12-4.56,15.45-4.56
		c6.87,0,12.35,1.52,16.45,4.56c3.83,3.3,5.88,7.6,6.15,12.88h-8.52c-2.51,0-4.43-1.12-5.74-3.37c-0.53-0.52-1.06-1.05-1.58-1.58
		c-1.59-1.19-3.77-1.78-6.54-1.78c-2.64,0-4.63,0.4-5.95,1.19c-1.19,0.79-1.79,1.99-1.79,3.57c0,2.11,3.44,3.9,10.31,5.35
		c0.79,0.27,1.49,0.46,2.08,0.6c0.59,0.13,1.15,0.2,1.68,0.2c6.74,1.72,11.43,3.7,14.07,5.95c2.5,2.38,3.76,5.55,3.76,9.52
		c0,5.81-2.11,10.3-6.34,13.47c-3.97,2.92-9.91,4.37-17.84,4.37c-7.53,0-13.15-1.52-16.84-4.56c-3.83-3.04-5.74-7.47-5.74-13.28
		V62.88z"/>
	<path fill="#939192" d="M735.37,78.13c-2.77,1.45-5.71,2.35-8.81,2.67c-3.11,0.33-5.85,0.49-8.22,0.49
		c-4.76,0-8.91-1.29-12.49-3.86c-3.56-2.58-5.35-6.83-5.35-12.78c0-5.55,1.61-9.51,4.86-11.89c3.23-2.38,7.36-3.96,12.38-4.76
		c0.66,0,1.46-0.1,2.38-0.29c0.92-0.21,1.98-0.37,3.17-0.5c5.81-0.79,8.72-2.51,8.72-5.15c0-1.98-1.02-3.26-3.06-3.86
		c-2.05-0.6-3.94-0.89-5.65-0.89c-1.85,0-3.5,0.27-4.95,0.79c-1.46,0.53-2.51,1.52-3.17,2.97h-13.27c0.52-4.09,2.38-7.47,5.55-10.11
		c3.57-3.04,8.65-4.56,15.25-4.56c7.4,0,12.94,1.25,16.65,3.76c3.83,2.65,5.74,6.34,5.74,11.1V59.3c0,5.29-0.95,9.42-2.87,12.38
		C740.29,74.66,738.01,76.81,735.37,78.13 M732.2,53.76c-1.85,0.93-4.43,1.78-7.72,2.58l-4.56,0.99c-2.38,0.66-4.09,1.51-5.15,2.57
		c-0.93,1.45-1.38,2.91-1.38,4.36c0,1.99,0.59,3.56,1.78,4.75c1.19,1.06,2.91,1.59,5.15,1.59c3.7,0,6.61-1.05,8.72-3.17
		c2.1-2.12,3.17-5.03,3.17-8.72V53.76z"/>
	<path fill="#939192" d="M745.88,62.88h13.47c0.12,2.64,1.12,4.62,2.97,5.94c1.98,1.32,4.62,1.98,7.92,1.98
		c2.38,0,4.43-0.46,6.15-1.38c1.59-0.93,2.38-2.18,2.38-3.76c0-2.38-2.77-4.16-8.32-5.35c-2.38-0.4-4.17-0.79-5.35-1.18
		c-7.01-1.72-11.69-3.77-14.07-6.15c-2.64-2.38-3.96-5.56-3.96-9.51c0-5.02,1.91-9.18,5.74-12.48c3.97-3.04,9.11-4.56,15.46-4.56
		c6.86,0,12.35,1.52,16.45,4.56c3.83,3.3,5.87,7.6,6.14,12.88h-8.52c-2.51,0-4.43-1.12-5.74-3.37c-0.53-0.52-1.06-1.05-1.58-1.58
		c-1.58-1.19-3.77-1.78-6.54-1.78c-2.64,0-4.63,0.4-5.94,1.19c-1.19,0.79-1.78,1.99-1.78,3.57c0,2.11,3.43,3.9,10.3,5.35
		c0.8,0.27,1.48,0.46,2.08,0.6c0.6,0.13,1.16,0.2,1.68,0.2c6.74,1.72,11.43,3.7,14.08,5.95c2.5,2.38,3.76,5.55,3.76,9.52
		c0,5.81-2.11,10.3-6.34,13.47c-3.97,2.92-9.92,4.37-17.84,4.37c-7.53,0-13.15-1.52-16.84-4.56c-3.83-3.04-5.74-7.47-5.74-13.28
		V62.88z"/>
	<path fill="#E55341" d="M46.27,34.76V17.25C46.27,9.87,47.36,0,57.5,0h4.81v34.76"/>
	<path fill="#E4E062" d="M62.54,73.14v17.51c0,7.39-1.09,17.25-11.23,17.25H46.5V73.14"/>
	<path fill="#4CB4AD" d="M35.11,61.87H17.42C9.97,61.87,0,60.78,0,50.75v-4.76h35.11"/>
	<path fill="#F2A352" d="M73.86,46.09h17.69c7.45,0,17.42,1.08,17.42,11.12v4.76H73.86"/>
	<path fill="#79B96E" d="M62.52,34.71l12.51-12.38c5.27-5.22,13.09-11.44,20.26-4.34l3.41,3.37L73.86,45.94"/>
	<path fill="#EA8AB7" d="M46.63,73.07L34.12,85.46c-5.27,5.22-13.09,11.43-20.26,4.34l-3.4-3.37l24.83-24.59"/>
	<path fill="#27549F" d="M34.98,45.92l-12.5-12.38c-5.28-5.22-11.55-12.97-4.38-20.07l3.4-3.37l24.82,24.58"/>
	<path fill="#9497C7" d="M73.83,61.76l12.51,12.38c5.27,5.22,11.55,12.97,4.38,20.07l-3.41,3.37L62.49,73"/>
</g>
</svg>
